G04 EAGLE Gerber RS-274X export*
G75*
%MOMM*%
%FSLAX34Y34*%
%LPD*%
%INTop Copper*%
%IPPOS*%
%AMOC8*
5,1,8,0,0,1.08239X$1,22.5*%
G01*
%ADD10R,1.450000X2.100000*%
%ADD11C,2.032000*%
%ADD12C,3.810000*%
%ADD13C,1.508000*%
%ADD14C,0.889000*%
%ADD15C,1.270000*%
%ADD16C,2.540000*%
%ADD17C,5.842000*%


D10*
X172720Y280450D03*
X147320Y280450D03*
X121920Y280450D03*
X96520Y280450D03*
X96520Y189450D03*
X121920Y189450D03*
X147320Y189450D03*
X172720Y189450D03*
D11*
X83820Y539750D03*
X83820Y463550D03*
X160020Y539750D03*
X160020Y463550D03*
D12*
X45720Y539750D03*
X198120Y539750D03*
D11*
X172720Y107950D03*
X96520Y107950D03*
D13*
X96520Y64690D02*
X96520Y49610D01*
X121920Y49610D02*
X121920Y64690D01*
X147320Y64690D02*
X147320Y49610D01*
D11*
X83820Y425450D03*
X160020Y425450D03*
X96520Y336550D03*
X172720Y336550D03*
X172720Y374650D03*
X96520Y374650D03*
X71120Y146050D03*
X147320Y146050D03*
D14*
X96520Y280450D02*
X96520Y336550D01*
X71120Y336550D01*
X58420Y349250D01*
X58420Y412750D02*
X71120Y425450D01*
X83820Y425450D01*
X58420Y412750D02*
X58420Y349250D01*
D15*
X83820Y425450D02*
X83820Y463550D01*
D14*
X160020Y374650D02*
X147320Y361950D01*
X160020Y374650D02*
X172720Y374650D01*
X147320Y361950D02*
X147320Y280450D01*
X147320Y361950D02*
X147320Y412750D01*
X160020Y425450D01*
D15*
X160020Y463550D01*
D16*
X160020Y539750D02*
X198120Y539750D01*
D17*
X198120Y552450D01*
D16*
X83820Y539750D02*
X45720Y539750D01*
D17*
X45720Y552450D01*
D14*
X96520Y189450D02*
X91220Y184150D01*
X83820Y184150D01*
X71120Y171450D01*
X71120Y146050D01*
X147320Y146050D02*
X147320Y57150D01*
X147320Y146050D02*
X147320Y189450D01*
X172720Y189450D02*
X172720Y107950D01*
X121920Y57150D02*
X121920Y189450D01*
X172720Y107950D02*
X172720Y31750D01*
X160020Y19050D01*
X134620Y19050D02*
X121920Y31750D01*
X121920Y57150D01*
X134620Y19050D02*
X160020Y19050D01*
X96520Y57150D02*
X96520Y107950D01*
X96520Y374650D02*
X109220Y374650D01*
X121920Y361950D01*
X121920Y280450D01*
X172720Y280450D02*
X172720Y336550D01*
M02*
